<?xml version="1.0" standalone="no"?>
<!DOCTYPE svg PUBLIC "-//W3C//DTD SVG 20010904//EN"
 "http://www.w3.org/TR/2001/REC-SVG-20010904/DTD/svg10.dtd">
<svg version="1.0" xmlns="http://www.w3.org/2000/svg"
 width="336.000000pt" height="336.000000pt" viewBox="0 0 336.000000 336.000000"
 preserveAspectRatio="xMidYMid meet">
<metadata>
Created by potrace 1.11, written by Peter Selinger 2001-2013
</metadata>
<g transform="translate(0.000000,336.000000) scale(0.100000,-0.100000)"
fill="#000000" stroke="none">
<path d="M1470 3250 c-177 -105 -224 -143 -233 -187 -3 -15 -6 -345 -7 -733
-1 -388 -2 -1000 -4 -1360 -2 -592 -1 -659 14 -695 9 -22 24 -46 32 -53 25
-20 350 -213 353 -210 3 3 14 3339 11 3337 -1 0 -75 -45 -166 -99z"/>
<path d="M433 2740 c-89 -53 -172 -105 -184 -116 -49 -43 -48 -27 -50 -935 -2
-769 -1 -857 14 -885 8 -17 22 -36 30 -42 14 -12 178 -112 183 -112 1 0 39
-23 84 -51 45 -28 84 -48 86 -46 7 6 11 2278 5 2281 -4 2 -79 -41 -168 -94z"/>
<path d="M2779 2803 c-1 -16 -3 -520 -5 -1121 l-4 -1092 28 14 c15 8 97 57
182 108 117 71 159 101 174 128 20 34 21 55 23 865 3 911 5 881 -56 922 -40
27 -333 203 -337 203 -2 0 -4 -12 -5 -27z"/>
<path d="M940 2561 c-179 -107 -208 -132 -219 -183 -4 -18 -7 -439 -6 -935 0
-896 0 -902 21 -930 19 -27 364 -245 374 -236 7 7 10 2383 2 2383 -4 0 -81
-45 -172 -99z"/>
<path d="M1742 1213 l-2 -1204 27 15 c61 31 318 187 336 204 11 9 24 28 29 42
11 27 23 1800 13 1857 -9 51 -47 87 -168 158 -62 37 -132 79 -157 94 -25 15
-52 30 -60 33 -13 5 -15 -133 -18 -1199z"/>
<path d="M2260 1773 c-4 -248 -5 -1461 -3 -1469 4 -12 314 166 355 203 47 42
47 43 49 541 1 450 1 473 -18 509 -16 31 -46 54 -164 126 -79 48 -161 96 -181
107 l-38 20 0 -37z"/>
</g>
</svg>
