<?xml version="1.0" encoding="UTF-8" standalone="no"?>
<!-- Created with Inkscape (http://www.inkscape.org/) -->

<svg
   xmlns:dc="http://purl.org/dc/elements/1.1/"
   xmlns:cc="http://creativecommons.org/ns#"
   xmlns:rdf="http://www.w3.org/1999/02/22-rdf-syntax-ns#"
   xmlns:svg="http://www.w3.org/2000/svg"
   xmlns="http://www.w3.org/2000/svg"
   xmlns:sodipodi="http://sodipodi.sourceforge.net/DTD/sodipodi-0.dtd"
   xmlns:inkscape="http://www.inkscape.org/namespaces/inkscape"
   id="svg2"
   version="1.1"
   inkscape:version="0.91 r13725"
   xml:space="preserve"
   width="115mm"
   height="30mm"
   viewBox="0 0 407.48031 106.29921"
   sodipodi:docname="logo-full.svg"><metadata
     id="metadata8"><rdf:RDF><cc:Work
         rdf:about=""><dc:format>image/svg+xml</dc:format><dc:type
           rdf:resource="http://purl.org/dc/dcmitype/StillImage" /><dc:title></dc:title></cc:Work></rdf:RDF></metadata><defs
     id="defs6"><clipPath
       clipPathUnits="userSpaceOnUse"
       id="clipPath16"><path
         d="m 0,841.89 595.28,0 L 595.28,0 0,0 0,841.89 Z"
         id="path18"
         inkscape:connector-curvature="0" /></clipPath></defs><sodipodi:namedview
     pagecolor="#ffffff"
     bordercolor="#666666"
     borderopacity="1"
     objecttolerance="10"
     gridtolerance="10"
     guidetolerance="10"
     inkscape:pageopacity="0"
     inkscape:pageshadow="2"
     inkscape:window-width="1486"
     inkscape:window-height="837"
     id="namedview4"
     showgrid="false"
     inkscape:zoom="1.33034"
     inkscape:cx="299.19771"
     inkscape:cy="171.20663"
     inkscape:window-x="65"
     inkscape:window-y="24"
     inkscape:window-maximized="0"
     inkscape:current-layer="g10"
     units="mm"
     height="92mm"><inkscape:grid
       type="xygrid"
       id="grid3427" /></sodipodi:namedview><g
     id="g10"
     inkscape:groupmode="layer"
     inkscape:label="logo-full"
     transform="matrix(1.25,0,0,-1.25,0,106.29921)"><g
       id="g12"
       transform="translate(-55.710701,-698.76873)"><g
         id="g14"
         clip-path="url(#clipPath16)"><g
           id="g20"
           transform="translate(71.7665,766.7991)"><path
             d="M 0,0 C 0,0 -5.446,-3.23 -7.258,-4.312 -8.493,-5.05 -9.056,-6.163 -9.056,-7.15 l 0,-37.272 c 0,-0.987 0.454,-2.197 1.798,-2.962 C -5.425,-48.426 0,-51.682 0,-51.682 L 0,0 Z"
             style="fill:#f98413;fill-opacity:1;fill-rule:nonzero;stroke:none"
             id="path22"
             inkscape:connector-curvature="0" /></g><g
           id="g24"
           transform="translate(97.5646,757.4196)"><path
             d="M 0,0 C 0,0 5.446,-3.23 7.258,-4.312 8.493,-5.05 9.056,-6.163 9.056,-7.15 l 0,-39.987 c 0,-0.987 -0.454,-2.197 -1.798,-2.962 C 5.425,-51.141 0,-54.397 0,-54.397 L 0,0 Z"
             style="fill:#e7190c;fill-opacity:1;fill-rule:nonzero;stroke:none"
             id="path26"
             inkscape:connector-curvature="0" /></g><g
           id="g28"
           transform="translate(109.1826,743.7205)"><path
             d="M 0,0 C 0,0 5.446,-3.23 7.258,-4.312 8.493,-5.05 9.056,-6.163 9.056,-7.15 l 0,-19.87 c 0,-0.988 -0.454,-2.198 -1.798,-2.962 C 5.425,-31.024 0,-34.28 0,-34.28 L 0,0 Z"
             style="fill:#f98413;fill-opacity:1;fill-rule:nonzero;stroke:none"
             id="path30"
             inkscape:connector-curvature="0" /></g><g
           id="g32"
           transform="translate(120.8006,766.7991)"><path
             d="M 0,0 C 0,0 5.446,-3.23 7.258,-4.312 8.493,-5.05 9.056,-6.163 9.056,-7.15 l 0,-36.161 c 0,-0.987 -0.454,-2.198 -1.798,-2.962 C 5.425,-47.315 0,-50.571 0,-50.571 L 0,0 Z"
             style="fill:#f51243;fill-opacity:1;fill-rule:nonzero;stroke:none"
             id="path34"
             inkscape:connector-curvature="0" /></g><g
           id="g36"
           transform="translate(83.3845,762.8959)"><path
             d="M 0,0 C 0,0 -5.446,-3.23 -7.258,-4.312 -8.493,-5.05 -9.056,-6.163 -9.056,-7.15 l 0,-39.561 c 0,-0.987 0.454,-2.197 1.798,-2.962 C -5.425,-50.715 0,-53.971 0,-53.971 L 0,0 Z"
             style="fill:#ff3300;fill-opacity:1;fill-rule:nonzero;stroke:none"
             id="path38"
             inkscape:connector-curvature="0" /></g><g
           id="g40"
           transform="translate(95.0025,778.2843)"><path
             d="M 0,0 C 0,0 -5.446,-3.23 -7.258,-4.312 -8.493,-5.05 -9.056,-6.163 -9.056,-7.15 l 0,-60.873 c 0,-0.987 0.454,-2.198 1.798,-2.962 C -5.425,-72.027 0,-75.283 0,-75.283 L 0,0 Z"
             style="fill:#e85810;fill-opacity:1;fill-rule:nonzero;stroke:none"
             id="path42"
             inkscape:connector-curvature="0" /></g><g
           id="g44"
           transform="translate(161.655,742.2734)"><path
             d="m 0,0 c 0,0.363 -0.003,0.607 -0.003,0.849 0,1.633 -0.791,2.406 -2.186,2.406 l -8.922,0 c -2.715,0 -3.385,-0.773 -3.385,-3.308 l 0,-5.317 C -9.677,-3.574 -4.822,-1.796 0,0 m -20.785,2.637 c 0,2.128 1.957,6.566 7.884,6.566 l 11.903,0 C 0.812,9.182 2.498,8.637 3.934,7.479 5.342,6.344 6.154,4.84 6.277,3.063 6.434,0.805 6.429,-1.463 6.496,-3.77 -0.539,-6.343 -7.499,-8.888 -14.43,-11.423 c 0,-2.385 0.234,-3.256 2.709,-3.256 l 17.353,0 c 0,-0.014 0,-0.028 0,-0.042 l 0,-5.892 c 0,0 -15.22,0 -18.347,0 -6.079,0 -8.07,4.092 -8.07,7.422 l 0,15.828 z"
             style="fill:#ff6600;fill-opacity:1;fill-rule:nonzero;stroke:none"
             id="path46"
             inkscape:connector-curvature="0" /></g><g
           id="g48"
           transform="translate(243.4789,742.2734)"><path
             d="m 0,0 c 0,0.363 -0.003,0.607 -0.003,0.849 0,1.633 -0.791,2.406 -2.186,2.406 l -8.922,0 c -2.715,0 -3.385,-0.773 -3.385,-3.308 l 0,-5.317 C -9.677,-3.574 -4.822,-1.796 0,0 m -20.785,2.637 c 0,2.128 1.957,6.566 7.884,6.566 l 11.903,0 C 0.812,9.182 2.498,8.637 3.934,7.479 5.342,6.344 6.154,4.84 6.277,3.063 6.434,0.805 6.429,-1.463 6.496,-3.77 -0.539,-6.343 -7.499,-8.888 -14.43,-11.423 c 0,-2.385 0.234,-3.256 2.709,-3.256 l 17.353,0 c 0,-0.014 0,-0.028 0,-0.042 l 0,-5.892 c 0,0 -15.22,0 -18.347,0 -6.079,0 -8.07,4.092 -8.07,7.422 l 0,15.828 z"
             style="fill:#ff6600;fill-opacity:1;fill-rule:nonzero;stroke:none"
             id="path50"
             inkscape:connector-curvature="0" /></g><g
           id="g52"
           transform="translate(369.3619,742.2734)"><path
             d="m 0,0 c 0,0.363 -0.003,0.607 -0.003,0.849 0,1.633 -0.791,2.406 -2.186,2.406 l -8.922,0 c -2.715,0 -3.385,-0.773 -3.385,-3.308 l 0,-5.317 C -9.677,-3.574 -4.822,-1.796 0,0 m -20.785,2.637 c 0,2.128 1.957,6.566 7.884,6.566 l 11.903,0 C 0.812,9.182 2.498,8.637 3.934,7.479 5.342,6.344 6.154,4.84 6.277,3.063 6.434,0.805 6.43,-1.463 6.496,-3.77 -0.539,-6.343 -7.499,-8.888 -14.43,-11.423 c 0,-2.385 0.234,-3.256 2.709,-3.256 l 17.353,0 c 0,-0.014 0,-0.028 0,-0.042 l 0,-5.892 c 0,0 -15.22,0 -18.347,0 -6.079,0 -8.07,4.092 -8.07,7.422 l 0,15.828 z"
             style="fill:#ff6600;fill-opacity:1;fill-rule:nonzero;stroke:none"
             id="path54"
             inkscape:connector-curvature="0" /></g><g
           id="g56"
           transform="translate(190.0787,761.7818)"><path
             d="m 0,0 6.345,0 0,-10.265 c 0.509,0 0.651,0.001 0.942,0 3.743,-0.008 7.485,-0.013 11.228,-10e-4 1.451,0.004 2.864,-0.164 4.217,-0.726 2.434,-1.011 3.873,-2.809 4.291,-5.409 0.097,-0.602 0.16,-1.216 0.161,-1.825 0.011,-7.055 0.007,-21.583 0.007,-21.844 l -6.389,0 c -0.006,0.315 -0.025,13.515 -0.025,19.681 0,2.811 -0.275,4.158 -3.742,4.158 -3.374,0.015 -6.882,0.009 -10.256,0.007 -0.089,0 -0.224,0.025 -0.402,0 l 0,-23.852 -6.305,0 C 0.072,-35.939 0,-4.654 0,0"
             style="fill:#ff6600;fill-opacity:1;fill-rule:nonzero;stroke:none"
             id="path58"
             inkscape:connector-curvature="0" /></g><g
           id="g60"
           transform="translate(271.6249,761.7818)"><path
             d="m 0,0 6.345,0 0,-10.265 c 0.509,0 0.651,0.001 0.942,0 3.743,-0.008 7.485,-0.013 11.227,-10e-4 1.452,0.004 2.865,-0.164 4.218,-0.726 2.434,-1.011 3.873,-2.809 4.291,-5.409 0.097,-0.602 0.16,-1.216 0.161,-1.825 0.011,-7.055 0.007,-21.583 0.007,-21.844 l -6.389,0 c -0.006,0.315 -0.025,13.515 -0.025,19.681 0,2.811 -0.275,4.158 -3.742,4.158 -3.374,0.015 -6.882,0.009 -10.256,0.007 -0.089,0 -0.224,0.025 -0.402,0 l 0,-23.852 -6.305,0 C 0.072,-35.939 0,-4.654 0,0"
             style="fill:#ff6600;fill-opacity:1;fill-rule:nonzero;stroke:none"
             id="path62"
             inkscape:connector-curvature="0" /></g><g
           id="g64"
           transform="translate(314.3377,751.4703)"><path
             d="m 0,0 6.82,0 c 2.924,-6.914 5.849,-13.83 8.844,-20.914 2.969,7.062 5.871,13.969 8.788,20.908 l 6.803,0 c -0.295,-0.752 -0.559,-1.45 -0.841,-2.14 -3.239,-7.95 -6.481,-15.9 -9.725,-23.848 -0.231,-0.566 -0.47,-1.13 -0.727,-1.684 -1.04,-2.242 -2.976,-2.934 -5.232,-2.612 -1.729,0.248 -2.898,1.262 -3.571,2.831 -0.88,2.049 -1.715,4.118 -2.554,6.185 C 6.009,-14.876 3.42,-8.474 0.829,-2.073 0.558,-1.404 0.293,-0.732 0,0"
             style="fill:#ff6600;fill-opacity:1;fill-rule:nonzero;stroke:none"
             id="path66"
             inkscape:connector-curvature="0" /></g><g
           id="g68"
           transform="translate(179.7044,745.6514)"><path
             d="m 0,0 0,-23.86 -6.387,0 0,40.023 c 2.096,0.01 4.167,0.003 6.27,0.005 0,-2.47 0.115,-7.633 0.115,-10.308 1.236,-0.051 6.008,0 7.157,0 L 7.155,0 0,0 Z"
             style="fill:#ff6600;fill-opacity:1;fill-rule:nonzero;stroke:none"
             id="path70"
             inkscape:connector-curvature="0" /></g><g
           id="g72"
           transform="translate(261.305,721.6873)"><path
             d="m 0,0 -6.41,0 c -0.028,0.206 -0.018,14.527 0.011,21.488 0.005,1.092 0.025,2.203 0.377,3.27 0.734,2.221 2.227,3.684 4.405,4.474 1.013,0.367 2.057,0.578 3.14,0.579 1.656,0.002 3.312,0.01 4.967,0.012 0.178,0 0.356,0.017 0.575,0 l 0,-5.911 C 6.719,23.899 6.392,23.889 6.065,23.874 5.027,23.825 3.982,23.829 2.951,23.711 1.088,23.499 0.065,22.204 0,20.761 L 0,0 Z"
             style="fill:#ff6600;fill-opacity:1;fill-rule:nonzero;stroke:none"
             id="path74"
             inkscape:connector-curvature="0" /></g><path
           d="m 311.078,721.712 -6.337,0 0,29.708 6.337,0 0,-29.708 z"
           style="fill:#ff6600;fill-opacity:1;fill-rule:nonzero;stroke:none"
           id="path76"
           inkscape:connector-curvature="0" /><g
           id="g78"
           transform="translate(304.3106,756.9409)"><path
             d="M 0,0 C 0.022,1.938 1.675,3.596 3.613,3.517 5.615,3.434 7.09,1.912 7.157,-0.016 7.228,-2.034 5.503,-3.647 3.459,-3.65 1.762,-3.652 -0.101,-2.071 0,0"
             style="fill:#ff6600;fill-opacity:1;fill-rule:nonzero;stroke:none"
             id="path80"
             inkscape:connector-curvature="0" /></g></g></g></g></svg>