<?xml version="1.0" encoding="utf-8"?>
<!-- Generator: Adobe Illustrator 22.0.1, SVG Export Plug-In . SVG Version: 6.00 Build 0)  -->
<svg version="1.1" id="Layer_1" xmlns="http://www.w3.org/2000/svg" xmlns:xlink="http://www.w3.org/1999/xlink" x="0px" y="0px"
	 viewBox="0 0 368.3 96.9" style="enable-background:new 0 0 368.3 96.9;" xml:space="preserve">
<style type="text/css">
	.st0{fill:#F98413;}
	.st1{fill:#E7190C;}
	.st2{fill:#F51243;}
	.st3{fill:#FF3300;}
	.st4{fill:#E85810;}
	.st5{fill:#FF6600;}
</style>
<g id="XMLID_1870_">
	<g id="XMLID_1427_">
		<path id="XMLID_1434_" class="st0" d="M22.9,17.1c0,0-6.6,3.9-8.7,5.2c-1.5,0.9-2.2,2.2-2.2,3.4v44.9c0,1.2,0.5,2.6,2.2,3.6
			c2.2,1.3,8.7,5.2,8.7,5.2V17.1z"/>
		<path id="XMLID_1433_" class="st1" d="M54,28.4c0,0,6.6,3.9,8.7,5.2c1.5,0.9,2.2,2.2,2.2,3.4v48.1c0,1.2-0.5,2.6-2.2,3.6
			c-2.2,1.3-8.7,5.2-8.7,5.2V28.4z"/>
		<path id="XMLID_1432_" class="st0" d="M68,44.8c0,0,6.6,3.9,8.7,5.2c1.5,0.9,2.2,2.2,2.2,3.4v23.9c0,1.2-0.5,2.6-2.2,3.6
			c-2.2,1.3-8.7,5.2-8.7,5.2V44.8z"/>
		<path id="XMLID_1431_" class="st2" d="M82,17.1c0,0,6.6,3.9,8.7,5.2c1.5,0.9,2.2,2.2,2.2,3.4v43.5c0,1.2-0.5,2.6-2.2,3.6
			C88.5,74,82,77.9,82,77.9V17.1z"/>
		<path id="XMLID_1430_" class="st3" d="M36.9,21.8c0,0-6.6,3.9-8.7,5.2c-1.5,0.9-2.2,2.2-2.2,3.4V78c0,1.2,0.5,2.6,2.2,3.6
			c2.2,1.3,8.7,5.2,8.7,5.2V21.8z"/>
		<path id="XMLID_1429_" class="st4" d="M50.9,3.3c0,0-6.6,3.9-8.7,5.2c-1.5,0.9-2.2,2.2-2.2,3.4v73.3c0,1.2,0.5,2.6,2.2,3.6
			c2.2,1.3,8.7,5.2,8.7,5.2V3.3z"/>
	</g>
	<g id="XMLID_10157_">
		<path id="XMLID_10173_" class="st5" d="M106,23.2c2.6,0,5.2,0,7.8,0c0,4.1,0,8.2,0,12.4c0.4,0,0.7,0,1,0c4.5,0,9,0,13.4,0
			c1.7,0,3.4,0.2,5,0.8c3.4,1.3,5.5,4.2,5.6,7.8c0,1.1,0,2.3,0,3.4c0,7.6,0,15.3,0,22.9c0,0.4,0,0.7,0,1.1c-2.6,0-5.1,0-7.7,0
			c0-0.3,0-0.6,0-0.9c0-7.6,0-15.1,0-22.7c0-0.7-0.1-1.3-0.2-2c-0.3-1.8-1.6-2.8-3.4-3c-0.5-0.1-0.9-0.1-1.4-0.1
			c-3.9,0-8.2,0-12.1,0c-0.2,0-0.3,0.1-0.3,0.3c0,9.5,0,18.8,0,28.5c-0.9,0-5.6,0-7.9,0C106,55.4,106,39.3,106,23.2z"/>
		<path id="XMLID_10172_" class="st5" d="M274.8,35.6c2.6,0,5.1,0,7.7,0c0,0.3-0.1,0.5-0.1,0.7c-2,7.9-4,15.8-6,23.8
			c-0.7,2.7-1.4,5.5-2.1,8.2c-0.4,1.5-1.1,2.8-2.6,3.4c-1.6,0.7-3.3,0.7-4.9,0c-1.5-0.7-2.3-2-2.7-3.5c-0.6-2.3-1.2-4.6-1.8-7
			c-1.1-4.3-2.3-8.6-3.4-12.9c0-0.1-0.1-0.3-0.3-0.4c-0.2,0.7-0.4,1.4-0.6,2.1c-1.6,5.9-3.1,11.8-4.7,17.7c-0.1,0.5-0.3,1-0.5,1.5
			c-0.6,1.6-1.8,2.6-3.5,2.9c-0.9,0.1-1.8,0.1-2.6,0c-1.8-0.3-3.1-1.4-3.6-3.2c-0.7-2.6-1.3-5.1-2-7.7c-1.9-7.5-3.9-15.1-5.8-22.6
			c-0.2-0.9-0.5-1.9-0.7-3c2.7,0,5.2,0,7.9,0c2,7.7,4.1,15.4,6.1,23.1c0,0,0.1,0,0.1,0c0.7-2.6,1.4-5.3,2.1-7.9
			c1.1-4.1,2.2-8.3,3.3-12.4c0.3-1.3,1-2.4,2.2-3c1.5-0.7,3.1-0.7,4.6,0c1.2,0.5,1.9,1.5,2.2,2.7c0.6,2.1,1.1,4.2,1.7,6.2
			c1.3,4.8,2.5,9.6,3.9,14.4C270.7,51,272.8,43.3,274.8,35.6z"/>
		<path id="XMLID_10171_" class="st5" d="M350.9,71.6c-0.4,0-0.7,0-1,0c-4.5,0-9.1,0-13.6,0c-2,0-3.9-0.2-5.7-1
			c-3.1-1.4-4.6-3.8-4.9-7.1c0-0.5,0-1,0-1.6c0-8.4,0-16.8,0-25.2c0-0.3,0-0.7,0-1c2.6,0,5.1,0,7.7,0c0,0.4,0,0.7,0,1.1
			c0,7.8,0,15.6,0,23.4c0,0.6,0,1.2,0.2,1.8c0.4,1.5,1.5,2.1,2.9,2.4c0.6,0.1,1.3,0.1,1.9,0.1c4,0,7.9,0,11.9,0c0.2,0,0.4,0,0.5,0
			c0.1-0.1,0.1-0.1,0.1-0.1c0,0,0-0.1,0-0.1c0-0.1,0-0.1,0-0.2c0-0.1,0-0.1,0-0.2c0-9.3,0-18.9,0-28.2c0,0,0,0.2,0,0.2
			c0,0,0-0.1,0-0.1c2.2,0,4.5-0.1,7.7-0.1c0,0.2,0.1,0.5,0.1,0.7c0,13.2,0,26.5,0,39.7c0,1.2-0.1,2.4-0.6,3.6c-1,2.8-3,4.3-5.8,5.1
			c-1.3,0.4-2.6,0.5-3.9,0.5c-7.2,0-14.5,0-21.7,0c-0.1,0-0.3,0-0.4,0c0-2.5-0.1-4.8-0.1-7.2c0.3,0,0.6,0,1,0c6.2,0,12.3,0,18.5,0
			c0.7,0,1.5,0,2.2-0.2c1.9-0.4,2.8-1.6,3-3.4C351,73.6,350.9,72.6,350.9,71.6z"/>
		<path id="XMLID_10168_" class="st5" d="M311.2,48.5c0-1,0.1-1.9-0.2-2.8c-0.4-1.5-1.4-2.5-3-2.7c-0.7-0.1-1.4-0.2-2.1-0.2
			c-6.2,0-12.4,0-18.6,0c-0.3,0-0.7,0-1,0c0-2.4,0-4.7,0-7.1c0,0,15.6-0.1,23.1,0c1.9,0,3.7,0.4,5.4,1.3c2.5,1.3,3.8,3.5,4.2,6.3
			c0.1,0.6,0.1,1.2,0.1,1.7c0,5.7,0,11.3,0,17c0,1.3-0.1,2.6-0.5,3.9c-0.9,2.5-2.7,4.2-5.1,5.1c-1.3,0.5-2.8,0.8-4.2,0.8
			c-4.5,0-9,0-13.5,0c-1.7,0-3.3-0.3-4.9-1.1c-3.1-1.4-4.7-3.9-4.9-7.2c-0.1-2.1-0.1-4.2,0-6.3c0.1-4.2,2.5-7,6.5-8
			c1.4-0.4,2.9-0.4,4.3-0.4c4.5,0,9,0,13.4,0C310.5,48.5,310.8,48.5,311.2,48.5z M311.2,56.1c0-0.3-0.2-0.4-0.4-0.4
			c-4.4,0-8.5,0-13,0c-0.7,0-1.8,0.3-2.2,0.4c-1,0.3-1.9,1.2-2,2.4c-0.1,0.9-0.1,1.8,0,2.7c0.2,1.8,1.2,2.7,3,3c0.2,0,0.4,0,0.5,0
			c3.4,0,6.8,0.1,10.2,0c2.1,0,3.4-1.3,3.6-3.4C311.3,59.2,311.2,58.2,311.2,56.1z"/>
		<path id="XMLID_10163_" class="st5" d="M231.4,51.4c-8.3,3-16.7,6.1-25,9.1c-0.3,1.8,0.6,3.2,2.3,3.6c1.3,0.2,2.6,0.3,3.9,0.3
			c5.6,0,11.2,0,16.8,0c0.4,0,0.7,0,1.1,0c0,2.4,0.1,3.6,0.1,7.2c-0.3,0-0.6,0-0.9,0c-6.9,0-13.7,0-20.6,0c-1.8,0-3.6-0.2-5.3-0.9
			c-3-1.2-4.7-3.5-5.2-6.7c-0.1-0.7-0.2-1.5-0.2-2.3c0-5.6,0-11.3,0-16.9c0-1,0.1-2,0.4-3c0.6-2.4,2-4.1,4.3-5.1
			c1.5-0.7,3.1-1.1,4.8-1.1c4.8,0,9.6,0,14.4,0c1.5,0,2.9,0.3,4.2,0.9c2.9,1.3,4.6,3.6,4.8,6.8c0.2,2.6,0.1,5.2,0.1,7.8
			C231.5,51.1,231.5,51.2,231.4,51.4z M206.2,53.3c5.9-2.2,11.7-4.4,17.5-6.5c0-0.5,0-0.9,0-1.3c-0.2-1.3-0.8-2-2.1-2.3
			c-0.5-0.1-1-0.2-1.5-0.2c-2.9,0-5.7-0.1-8.6,0c-0.7,0-1.4,0.1-2.1,0.2c-1.7,0.3-2.8,1.5-3.1,3.2C206,48.6,206.3,50.9,206.2,53.3z"
			/>
		<path id="XMLID_10160_" class="st5" d="M157.6,35.6c2.8,0,5.5,0,8.2,0c3.5,8.4,7.1,16.7,10.7,25.2c3.6-8.5,7.1-16.8,10.6-25.2
			c2.7,0,5.4,0,8.2,0c-0.1,0.2-0.1,0.4-0.2,0.7c-4.3,10.7-8.7,21.3-13.1,32c-0.4,1-0.9,2-1.8,2.8c-1.1,0.9-2.4,1.3-3.8,1.2
			c-2.5,0-4.3-1.2-5.3-3.5c-0.9-2.1-1.8-4.3-2.7-6.5c-3.5-8.5-6.9-17.1-10.4-25.6C157.9,36.4,157.8,36,157.6,35.6z"/>
		<path id="XMLID_10159_" class="st5" d="M153.9,35.6c0,12,0,23.9,0,35.9c-2.6,0-5.1,0-7.7,0c0-12,0-23.9,0-35.9
			C148.7,35.6,151.3,35.6,153.9,35.6z"/>
		<path id="XMLID_10158_" class="st5" d="M154.3,29.2c0,2.4-1.9,4.3-4.3,4.3c-2.4,0-4.4-2-4.4-4.3c0-2.4,2-4.4,4.4-4.3
			C152.6,24.9,154.4,27,154.3,29.2z"/>
	</g>
</g>
</svg>
