<?xml version="1.0" encoding="UTF-8" standalone="no"?>
<!-- Created with Inkscape (http://www.inkscape.org/) -->

<svg
   xmlns:dc="http://purl.org/dc/elements/1.1/"
   xmlns:cc="http://creativecommons.org/ns#"
   xmlns:rdf="http://www.w3.org/1999/02/22-rdf-syntax-ns#"
   xmlns:svg="http://www.w3.org/2000/svg"
   xmlns="http://www.w3.org/2000/svg"
   xmlns:sodipodi="http://sodipodi.sourceforge.net/DTD/sodipodi-0.dtd"
   xmlns:inkscape="http://www.inkscape.org/namespaces/inkscape"
   id="svg2"
   version="1.1"
   inkscape:version="0.91 r13725"
   xml:space="preserve"
   width="206.09998"
   height="227.36255"
   viewBox="0 0 206.09998 227.36253"
   sodipodi:docname="logo.svg"><metadata
     id="metadata8"><rdf:RDF><cc:Work
         rdf:about=""><dc:format>image/svg+xml</dc:format><dc:type
           rdf:resource="http://purl.org/dc/dcmitype/StillImage" /><dc:title></dc:title></cc:Work></rdf:RDF></metadata><defs
     id="defs6"><clipPath
       clipPathUnits="userSpaceOnUse"
       id="clipPath16"><path
         d="m 0,841.89 595.28,0 L 595.28,0 0,0 0,841.89 Z"
         id="path18"
         inkscape:connector-curvature="0" /></clipPath></defs><sodipodi:namedview
     pagecolor="#ffffff"
     bordercolor="#666666"
     borderopacity="1"
     objecttolerance="10"
     gridtolerance="10"
     guidetolerance="10"
     inkscape:pageopacity="0"
     inkscape:pageshadow="2"
     inkscape:window-width="640"
     inkscape:window-height="480"
     id="namedview4"
     showgrid="false"
     inkscape:zoom="0.89702926"
     inkscape:cx="189.98241"
     inkscape:cy="144.41134"
     inkscape:window-x="65"
     inkscape:window-y="24"
     inkscape:window-maximized="0"
     inkscape:current-layer="g12" /><g
     id="g10"
     inkscape:groupmode="layer"
     inkscape:label="logo"
     transform="matrix(1.25,0,0,-1.25,0,227.36257)"><g
       id="g12"><g
         id="g14"
         clip-path="url(#clipPath16)"
         transform="translate(-204.36036,-310.33127)"><g
           id="g20"
           transform="translate(230.4962,463.2526)"><path
             d="m 0,0 c 0,0 -12.805,-7.55 -17.065,-10.079 -2.906,-1.724 -4.233,-4.335 -4.239,-6.653 l -0.228,-87.501 c -0.006,-2.318 1.052,-5.162 4.203,-6.965 4.297,-2.458 17.013,-10.135 17.013,-10.135 L 0,0 Z"
             style="fill:#ff3300;fill-opacity:1;fill-rule:nonzero;stroke:none"
             id="path22"
             inkscape:connector-curvature="0" /></g><g
           id="g24"
           transform="translate(291.0049,441.0746)"><path
             d="m 0,0 c 0,0 12.765,-7.616 17.013,-10.167 2.896,-1.74 4.21,-4.358 4.204,-6.675 l -0.245,-93.876 c -0.006,-2.318 -1.079,-5.157 -4.239,-6.943 -4.31,-2.436 -17.066,-10.046 -17.066,-10.046 L 0,0 Z"
             style="fill:#ff3300;fill-opacity:1;fill-rule:nonzero;stroke:none"
             id="path26"
             inkscape:connector-curvature="0" /></g><g
           id="g28"
           transform="translate(318.1966,408.8423)"><path
             d="m 0,0 c 0,0 12.765,-7.616 17.013,-10.167 2.896,-1.74 4.21,-4.358 4.204,-6.675 l -0.122,-46.649 c -0.006,-2.318 -1.079,-5.156 -4.239,-6.942 C 12.546,-72.869 -0.21,-80.479 -0.21,-80.479 L 0,0 Z"
             style="fill:#ff3300;fill-opacity:1;fill-rule:nonzero;stroke:none"
             id="path30"
             inkscape:connector-curvature="0" /></g><g
           id="g32"
           transform="translate(345.6133,462.9527)"><path
             d="m 0,0 c 0,0 12.765,-7.616 17.013,-10.167 2.896,-1.74 4.21,-4.358 4.204,-6.675 l -0.222,-84.894 c -0.006,-2.318 -1.078,-5.157 -4.239,-6.943 -4.31,-2.436 -17.065,-10.046 -17.065,-10.046 L 0,0 Z"
             style="fill:#ff3300;fill-opacity:1;fill-rule:nonzero;stroke:none"
             id="path34"
             inkscape:connector-curvature="0" /></g><g
           id="g36"
           transform="translate(257.7478,454.018)"><path
             d="m 0,0 c 0,0 -12.804,-7.55 -17.065,-10.079 -2.906,-1.724 -4.233,-4.335 -4.239,-6.653 l -0.242,-92.875 c -0.006,-2.318 1.052,-5.162 4.203,-6.965 4.297,-2.458 17.013,-10.135 17.013,-10.135 L 0,0 Z"
             style="fill:#ff3300;fill-opacity:1;fill-rule:nonzero;stroke:none"
             id="path38"
             inkscape:connector-curvature="0" /></g><g
           id="g40"
           transform="translate(285.1175,490.0743)"><path
             d="m 0,0 c 0,0 -12.805,-7.55 -17.065,-10.079 -2.906,-1.724 -4.233,-4.335 -4.239,-6.653 l -0.373,-142.91 c -0.006,-2.318 1.053,-5.162 4.204,-6.965 4.297,-2.458 17.012,-10.135 17.012,-10.135 L 0,0 Z"
             style="fill:#ff3300;fill-opacity:1;fill-rule:nonzero;stroke:none"
             id="path42"
             inkscape:connector-curvature="0" /></g></g></g></g></svg>